<svg xmlns="http://www.w3.org/2000/svg" viewBox="0 0 300 300">
  <g>
    <path d="M93.3333,206.6667a28.3334,28.3334,0,0,1,28.3334-28.3334H150v28.3334a28.3334,28.3334,0,0,1-56.6667,0" fill="#24cb71"/>
    <path d="M150,65v56.6667h28.3333a28.3334,28.3334,0,1,0,0-56.6667Z" fill="#ff7237"/>
    <circle cx="178.0972" cy="150" r="28.3333" fill="#00b6ff"/>
    <path d="M93.3333,93.3333a28.3334,28.3334,0,0,0,28.3334,28.3334H150V65H121.6667A28.3334,28.3334,0,0,0,93.3333,93.3333" fill="#ff3737"/>
    <path d="M93.3333,150a28.3334,28.3334,0,0,0,28.3334,28.3333H150V121.6667H121.6667A28.3334,28.3334,0,0,0,93.3333,150" fill="#874fff"/>
  </g>
</svg>
