<svg id="Layer_1" data-name="Layer 1" xmlns="http://www.w3.org/2000/svg" xmlns:xlink="http://www.w3.org/1999/xlink" viewBox="0 0 300 300"><defs><linearGradient id="linear-gradient" x1="50.00467" y1="81.05041" x2="250" y2="81.05041" gradientUnits="userSpaceOnUse"><stop offset="0.30921" stop-color="#06afb8"/><stop offset="0.79413" stop-color="#006eb5"/></linearGradient><linearGradient id="linear-gradient-2" x1="238.71642" y1="230.84427" x2="61.04503" y2="154.23697" gradientUnits="userSpaceOnUse"><stop offset="0.42766" stop-color="#0050b4"/><stop offset="0.74066" stop-color="#0056b4"/><stop offset="1" stop-color="#009eb7"/></linearGradient><linearGradient id="linear-gradient-3" x1="171.96036" y1="198.58426" x2="121.24849" y2="153.98659" gradientUnits="userSpaceOnUse"><stop offset="0.32453" stop-color="#0072b5"/><stop offset="1" stop-color="#0085b6"/></linearGradient><linearGradient id="linear-gradient-4" x1="112.52454" y1="102.85388" x2="185.91769" y2="102.85388" gradientUnits="userSpaceOnUse"><stop offset="0" stop-color="#009bb6"/><stop offset="1" stop-color="#0081b6"/></linearGradient></defs><path d="M53.80863,111.02929c2.99026-.10194,5.99053-.12129,8.97893.00507,2.44744.10349,4.29331-.99544,4.25052-4.28951-.11588-8.895-.06-17.79225-.068-26.68863a8.00091,8.00091,0,0,1,.06777-1.63983A13.6695,13.6695,0,0,1,77.12243,67.425a17.90369,17.90369,0,0,1,5.25577-.48747q59.07244-.0104,118.14489.00179c5.81862.00049,11.63749.02545,17.456-.00841a15.124,15.124,0,0,1,8.12964,1.82992c4.35874,2.61323,6.886,6.36162,6.9092,11.54.04057,9.02292.00891,18.04616.01324,27.06924a3.926,3.926,0,0,0,.12417,1.37235,3.23079,3.23079,0,0,0,3.28114,2.27172c3.24664.01593,6.49327.00727,9.73991.005,2.53129-.00173,3.81753-1.26611,3.81864-3.77949q.00594-14.2305.00495-28.461a26.17891,26.17891,0,0,0-.89554-7.24282,28.07455,28.07455,0,0,0-26.58988-20.40468c-9.48513-.11994-18.97274-.0517-28.45937-.05479q-21.94662-.0071-43.89311-.00124v.04088q-36.30325,0-72.60626-.001a25.30734,25.30734,0,0,0-5.37846.59816,27.66931,27.66931,0,0,0-17.1876,11.29669,25.00455,25.00455,0,0,0-4.90811,14.57673c-.06765,9.90805.00557,19.817-.0768,29.72486A3.571,3.571,0,0,0,53.80863,111.02929Z" fill="url(#linear-gradient)"/><path d="M249.98289,147.84027a3.15623,3.15623,0,0,0-3.13211-3.154c-3.584-.041-7.16917-.03345-10.75344.00016a3.01546,3.01546,0,0,0-2.90393,2.21282,4.21392,4.21392,0,0,0-.14742,1.49513q-.00873,35.67791-.01225,71.35586a9.712,9.712,0,0,1-.07841,1.89243,13.69354,13.69354,0,0,1-8.91647,10.60629,16.88182,16.88182,0,0,1-6.343.84574q-53.074.00614-106.14813.0157l-1.49785-.02626h-1.36329c-9.40277-.02282-18.80591-.00534-28.20843-.06207a13.30741,13.30741,0,0,1-10.63273-5.19161,12.29218,12.29218,0,0,1-2.87128-8.02764q.046-8.222.035-16.44435.00334-27.07158-.00322-54.14316c-.00012-.33733-.00333-.67472,0-1.012a3.33368,3.33368,0,0,0-3.5374-3.55175c-3.28732.07563-6.58009.09678-9.86581-.00739A3.55077,3.55077,0,0,0,50,148.2891q.06752,36.49591.01793,72.992a26.495,26.495,0,0,0,.9068,7.2381,27.195,27.195,0,0,0,7.23137,12.24,27.48253,27.48253,0,0,0,19.63269,8.15168c5.43893.0571,10.8791.01368,16.31865.0095.41877-.00032.83754-.045,1.25631-.06912.46205.0177.92423.05082,1.38629.05088q62.49966.00833,124.99931.0104a27.09313,27.09313,0,0,0,6.75584-.74495,27.63313,27.63313,0,0,0,19.46152-16.49933,26.1932,26.1932,0,0,0,2.03163-10.57444q-.02282-36.31051-.01175-72.621C249.9866,148.262,249.99205,148.05077,249.98289,147.84027Z" fill="url(#linear-gradient-2)"/><path d="M143.35069,160.35158q19.04.02439,38.07994.00856c.37944,0,.7611.02052,1.13807-.01148a3.16828,3.16828,0,0,0,3.13322-3.16869q.066-4.80624-.00791-9.61392a3.106,3.106,0,0,0-2.54749-3.03914,6.32888,6.32888,0,0,0-1.26015-.05355q-10.56378-.004-21.12732-.00192v.00285q-9.55161,0-19.10322.00127a32.53064,32.53064,0,0,0-7.63679.74472,27.71834,27.71834,0,0,0-17.6671,12.6639,26.44557,26.44557,0,0,0-4.02184,14.36349c.01348,4.9339.00223,9.86786.00185,14.8018q-.00092,10.94321.00161,21.88643a3.30019,3.30019,0,0,0,3.24206,3.48688q5.31186.09122,10.62643.00121a3.09506,3.09506,0,0,0,3.09266-3.17144c.01076-.337.0021-.67469.00173-1.01205q-.018-17.14155-.03685-34.28308a12.98637,12.98637,0,0,1,3.87454-9.42764A13.754,13.754,0,0,1,143.35069,160.35158Z" fill="url(#linear-gradient-3)"/><path d="M185.90649,98.32463a3.26712,3.26712,0,0,0-1.82795-3.0788,4.04471,4.04471,0,0,0-1.96646-.32614q-32.877.01057-65.75408.01011c-.295,0-.59253-.02285-.88466.00665a3.10223,3.10223,0,0,0-2.93064,3.06981c-.03463,3.24512-.009,6.49089-.0094,9.73642a2.88888,2.88888,0,0,0,.88181,2.02916,3.48192,3.48192,0,0,0,2.74921.99214q16.50176-.02088,33.00351-.0086v.00588c11.08539,0,22.171-.02647,33.25617.02677a3.45,3.45,0,0,0,3.49337-3.48558C185.87841,104.31031,185.90822,101.3173,185.90649,98.32463Z" fill="url(#linear-gradient-4)"/></svg>